<?xml version="1.0" encoding="UTF-8"?>
<svg id="Layer_1" data-name="Layer 1" xmlns="http://www.w3.org/2000/svg" viewBox="0 0 1000 78.19" fill="#ffffff">
  <path d="M43.94,78.19c-6.46,0-12.37-.99-17.72-2.96-5.35-1.97-9.98-4.72-13.89-8.24-3.91-3.52-6.95-7.66-9.1-12.44-2.15-4.77-3.23-9.93-3.23-15.46s1.08-10.77,3.23-15.51c2.15-4.74,5.2-8.87,9.15-12.39,3.95-3.52,8.58-6.26,13.89-8.24,5.31-1.97,11.16-2.96,17.56-2.96s12.37.97,17.72,2.91c5.35,1.94,9.98,4.68,13.89,8.24,3.91,3.55,6.93,7.7,9.05,12.44,2.12,4.74,3.18,9.91,3.18,15.51s-1.06,10.77-3.18,15.51c-2.12,4.74-5.13,8.88-9.05,12.44-3.91,3.55-8.55,6.3-13.89,8.24-5.35,1.94-11.22,2.91-17.61,2.91ZM43.94,60.96c3.66,0,7.04-.56,10.12-1.67,3.09-1.11,5.74-2.66,7.97-4.63,2.22-1.97,3.95-4.29,5.17-6.95,1.22-2.65,1.83-5.53,1.83-8.62s-.61-5.96-1.83-8.62c-1.22-2.66-2.94-4.97-5.17-6.95-2.23-1.97-4.9-3.52-8.02-4.63-3.12-1.11-6.48-1.67-10.07-1.67s-7.04.56-10.12,1.67c-3.09,1.11-5.78,2.64-8.08,4.58-2.3,1.94-4.04,4.25-5.22,6.95-1.18,2.69-1.78,5.58-1.78,8.67s.59,5.98,1.78,8.67c1.18,2.69,2.92,5.01,5.22,6.95,2.3,1.94,4.99,3.46,8.08,4.58,3.09,1.11,6.46,1.67,10.12,1.67Z"/>
  <path d="M138.72,77.11V1.72h17.02l47.93,53.85-2.91-.54c-.43-2.58-.75-5.04-.97-7.38-.22-2.33-.41-4.61-.59-6.84-.18-2.22-.32-4.42-.43-6.57-.11-2.15-.16-4.38-.16-6.68V1.72h17.77v75.39h-17.23l-49.65-55.57,4.85.75c.29,2.08.54,4.04.75,5.87.22,1.83.41,3.64.59,5.44.18,1.8.34,3.61.48,5.44.14,1.83.23,3.81.27,5.92.04,2.12.05,4.43.05,6.95v25.2h-17.77Z"/>
  <path d="M295.85,77.11v-35.43l1.51,7L261.28,1.72h21.97l26.71,35.97-9.37-.11L325.9,1.72h20.79l-33.39,45.88.97-6.79v36.3h-18.42Z"/>
  <path d="M381.05,77.11l32.74-41.03,14.43,8.51-25.09,32.53h-22.08ZM442.76,77.11l-27.03-33.93L381.58,1.72h22.94l26.06,32.96,35.11,42.43h-22.94ZM432.85,42.11l-14.22-8.19L442.44,1.72h22.08l-31.66,40.39Z"/>
  <path d="M584.92,77.11V1.72h18.31v59.24h42v16.16h-60.31Z"/>
  <path d="M684.87,77.11L718.9,1.72h16.48l33.93,75.39h-18.74l-18.74-41.9c-.72-1.51-1.38-3.03-1.99-4.58-.61-1.54-1.2-3.09-1.78-4.63-.58-1.54-1.11-3.09-1.62-4.63-.5-1.54-.97-3.03-1.4-4.47l3.77-.11c-.5,1.65-1.01,3.23-1.51,4.74-.5,1.51-1.06,3.03-1.67,4.58-.61,1.54-1.24,3.07-1.88,4.58s-1.29,3.05-1.94,4.63l-18.63,41.79h-18.31ZM700.81,63.33l5.82-13.79h40.6l3.88,13.79h-50.3Z"/>
  <path d="M814.75,77.11V1.72h38.66c5.96,0,11.02.75,15.19,2.26,4.16,1.51,7.29,3.63,9.37,6.35,2.08,2.73,3.12,6.03,3.12,9.91,0,4.24-1.17,7.83-3.5,10.77-2.33,2.95-5.83,4.99-10.5,6.14l.22-2.05c3.3.72,6.3,1.9,8.99,3.55,2.69,1.65,4.83,3.79,6.41,6.41,1.58,2.62,2.37,5.69,2.37,9.21,0,4.24-.83,7.81-2.48,10.72-1.65,2.91-3.9,5.24-6.73,7-2.84,1.76-6.01,3.05-9.53,3.88-3.52.83-7.15,1.24-10.88,1.24h-40.71ZM831.99,31.66h20.46c2.15,0,4.04-.3,5.65-.91,1.62-.61,2.85-1.45,3.72-2.53.86-1.08,1.29-2.44,1.29-4.09,0-2.37-1.04-4.15-3.12-5.33-2.08-1.18-4.81-1.78-8.19-1.78h-19.82v14.65ZM831.99,61.82h23.48c2.3,0,4.31-.3,6.03-.92,1.72-.61,3.09-1.54,4.09-2.8,1-1.25,1.51-2.82,1.51-4.68s-.61-3.5-1.83-4.69c-1.22-1.18-2.77-2.05-4.63-2.58-1.87-.54-3.77-.81-5.71-.81h-22.94v16.48Z"/>
  <path d="M966.18,78.19c-5.6,0-10.72-.58-15.35-1.72s-8.78-2.73-12.44-4.74c-3.66-2.01-6.97-4.42-9.91-7.22l9.59-13.79c4.81,4.52,9.67,7.66,14.59,9.42,4.92,1.76,9.78,2.64,14.59,2.64,2.22,0,4.4-.25,6.52-.75,2.12-.5,3.88-1.29,5.28-2.37s2.1-2.51,2.1-4.31c0-1.15-.36-2.14-1.08-2.96-.72-.82-1.69-1.54-2.91-2.15-1.22-.61-2.64-1.09-4.25-1.45-1.62-.36-3.36-.68-5.22-.97-1.87-.29-3.81-.57-5.82-.86-4.6-.65-8.71-1.6-12.33-2.85-3.63-1.25-6.71-2.84-9.26-4.74-2.55-1.9-4.47-4.15-5.76-6.73s-1.94-5.56-1.94-8.94c0-3.66.86-6.96,2.58-9.91,1.72-2.94,4.13-5.44,7.22-7.49,3.09-2.05,6.62-3.61,10.61-4.68,3.99-1.08,8.27-1.62,12.87-1.62,5.17,0,9.75.5,13.73,1.51,3.99,1.01,7.48,2.41,10.5,4.2,3.02,1.8,5.53,3.81,7.54,6.03l-9.91,11.96c-1.87-1.72-4-3.19-6.41-4.42-2.41-1.22-4.94-2.15-7.59-2.8-2.66-.65-5.32-.97-7.97-.97-2.8,0-5.24.27-7.32.81-2.08.54-3.73,1.31-4.95,2.32-1.22,1.01-1.83,2.3-1.83,3.88,0,1.29.52,2.41,1.56,3.34,1.04.93,2.39,1.71,4.04,2.32,1.65.61,3.5,1.09,5.55,1.45,2.05.36,4.07.68,6.08.97,4.16.58,8.13,1.35,11.9,2.32,3.77.97,7.11,2.28,10.02,3.93,2.91,1.65,5.17,3.79,6.79,6.41,1.62,2.62,2.42,5.98,2.42,10.07,0,5.24-1.45,9.71-4.36,13.41-2.91,3.7-6.89,6.53-11.96,8.51-5.06,1.97-10.9,2.96-17.5,2.96Z"/>
</svg>